<svg width="35" height="28" viewBox="0 0 35 28" fill="none" xmlns="http://www.w3.org/2000/svg">
<path fill-rule="evenodd" clip-rule="evenodd" d="M3.85 2.1L17.08 12.0225C17.2012 12.1134 17.3485 12.1625 17.5 12.1625C17.6515 12.1625 17.7988 12.1134 17.92 12.0225L31.15 2.1H3.85ZM32.9 3.4125L19.18 13.7025C18.6953 14.066 18.1058 14.2625 17.5 14.2625C16.8942 14.2625 16.3047 14.066 15.82 13.7025L2.1 3.4125V25.9H32.9V3.4125ZM1.75 0H33.25C33.7141 0 34.1592 0.184375 34.4874 0.512563C34.8156 0.840752 35 1.28587 35 1.75V26.25C35 26.7141 34.8156 27.1592 34.4874 27.4874C34.1592 27.8156 33.7141 28 33.25 28H1.75C1.28587 28 0.840752 27.8156 0.512563 27.4874C0.184374 27.1592 0 26.7141 0 26.25V1.75C0 1.28587 0.184374 0.840752 0.512563 0.512563C0.840752 0.184375 1.28587 0 1.75 0Z" fill="black"/>
</svg>
